<?xml version="1.0" encoding="iso-8859-1"?>
<!-- Generator: Adobe Illustrator 19.0.0, SVG Export Plug-In . SVG Version: 6.00 Build 0)  -->
<svg version="1.1" id="Capa_1" xmlns="http://www.w3.org/2000/svg" xmlns:xlink="http://www.w3.org/1999/xlink" x="0px" y="0px"
	 viewBox="0 0 512 512" style="enable-background:new 0 0 512 512;" xml:space="preserve">
<path style="fill:#424445;" d="M360.927,424.526l-21.722-220C338.447,196.85,331.991,191,324.278,191H187.722
	c-7.713,0-14.169,5.85-14.927,13.526l-21.722,220c-0.417,4.214,0.968,8.408,3.812,11.545C157.728,439.21,161.765,441,166,441h180
	c4.235,0,8.272-1.79,11.115-4.928C359.959,432.934,361.344,428.74,360.927,424.526z"/>
<path style="fill:#252728;" d="M360.927,424.526l-21.722-220C338.447,196.85,331.991,191,324.278,191H256v250h90
	c4.235,0,8.272-1.79,11.115-4.928C359.959,432.934,361.344,428.74,360.927,424.526z"/>
<path style="fill:#5A5D60;" d="M351,140H161c-8.284,0-15,6.716-15,15v51c0,8.284,6.716,15,15,15h190c8.284,0,15-6.716,15-15v-51
	C366,146.716,359.284,140,351,140z"/>
<g>
	<path style="fill:#424445;" d="M351,140h-95v81h95c8.284,0,15-6.716,15-15v-51C366,146.716,359.284,140,351,140z"/>
	<path style="fill:#424445;" d="M391,15v140c0,8.28-6.72,15-15,15H136c-8.28,0-15-6.72-15-15V15c0-8.28,6.72-15,15-15h240
		C384.28,0,391,6.72,391,15z"/>
</g>
<path style="fill:#252728;" d="M376,0H256v170h120c8.28,0,15-6.72,15-15V15C391,6.72,384.28,0,376,0z"/>
<path style="fill:#5A5D60;" d="M404.875,491.302l-29.158-71c-2.311-5.627-7.792-9.302-13.875-9.302H150.158
	c-6.083,0-11.564,3.674-13.875,9.302l-29.158,71c-1.9,4.626-1.369,9.896,1.416,14.051C111.326,509.507,115.998,512,121,512h270
	c5.002,0,9.674-2.493,12.459-6.647C406.245,501.198,406.775,495.928,404.875,491.302z"/>
<path style="fill:#252728;" d="M221,0v66c0,8.28-6.72,15-15,15s-15-6.72-15-15V0H221z"/>
<path style="fill:#424445;" d="M404.875,491.302l-29.158-71c-2.311-5.627-7.792-9.302-13.875-9.302H256v101h135
	c5.002,0,9.674-2.493,12.459-6.647C406.245,501.198,406.775,495.928,404.875,491.302z"/>
<path style="fill:#181C1C;" d="M321,0v66c0,8.28-6.72,15-15,15s-15-6.72-15-15V0H321z"/>
<g>
</g>
<g>
</g>
<g>
</g>
<g>
</g>
<g>
</g>
<g>
</g>
<g>
</g>
<g>
</g>
<g>
</g>
<g>
</g>
<g>
</g>
<g>
</g>
<g>
</g>
<g>
</g>
<g>
</g>
</svg>
