<?xml version="1.0" encoding="iso-8859-1"?>
<!-- Generator: Adobe Illustrator 19.0.0, SVG Export Plug-In . SVG Version: 6.00 Build 0)  -->
<svg version="1.1" id="Capa_1" xmlns="http://www.w3.org/2000/svg" xmlns:xlink="http://www.w3.org/1999/xlink" x="0px" y="0px"
	 viewBox="0 0 512 512" style="enable-background:new 0 0 512 512;" xml:space="preserve">
<path style="fill:#FFFFFF;" d="M343.003,128.117C337.738,84.153,300.336,51,256,51c-21.564,0-42.292,7.907-58.364,22.264
	c-15.944,14.246-26.116,33.728-28.641,54.857c-0.859,7.199,3.552,13.982,10.48,16.115l29.07,8.95
	c3.719,1.145,7.734,0.8,11.204-0.961L256,133.822l36.25,18.403c3.473,1.764,7.49,2.104,11.204,0.961l29.069-8.95
	C339.453,142.102,343.865,135.316,343.003,128.117z"/>
<g>
	<path style="fill:#E7E6E4;" d="M343.003,128.117C337.738,84.153,300.336,51,256,51v82.822l36.25,18.403
		c3.473,1.764,7.49,2.104,11.204,0.961l29.069-8.95C339.453,142.102,343.865,135.316,343.003,128.117z"/>
	<path style="fill:#E7E6E4;" d="M330.776,424.723l-14.44-169C315.673,247.962,309.18,242,301.391,242H210.61
		c-7.789,0-14.282,5.962-14.945,13.723l-14.44,169c-0.357,4.185,1.056,8.328,3.896,11.422S191.969,441,196.169,441h119.662
		c4.2,0,8.208-1.761,11.049-4.855S331.134,428.908,330.776,424.723z"/>
</g>
<path style="fill:#CAC9C7;" d="M330.776,424.723l-14.44-169C315.673,247.962,309.18,242,301.391,242H256v199h59.831
	c4.2,0,8.208-1.761,11.049-4.855S331.134,428.908,330.776,424.723z"/>
<path style="fill:#FFFFFF;" d="M328.62,191H183.38c-8.284,0-15,6.716-15,15v51c0,8.284,6.716,15,15,15h145.24
	c8.284,0,15-6.716,15-15v-51C343.62,197.716,336.904,191,328.62,191z"/>
<path style="fill:#E7E6E4;" d="M328.62,191H256v81h72.62c8.284,0,15-6.716,15-15v-51C343.62,197.716,336.904,191,328.62,191z"/>
<path style="fill:#FFFFFF;" d="M380.225,492.24l-23.758-71c-2.047-6.117-7.774-10.24-14.225-10.24H169.758
	c-6.45,0-12.178,4.124-14.225,10.24l-23.758,71c-1.531,4.575-0.768,9.608,2.051,13.523c2.82,3.916,7.349,6.237,12.174,6.237h220
	c4.825,0,9.354-2.321,12.174-6.236C380.992,501.848,381.756,496.815,380.225,492.24z"/>
<path style="fill:#E7E6E4;" d="M381.295,107.141c-3.896-4.466-10.059-6.221-15.72-4.476l-65.153,20.065l-37.632-19.104
	c-4.268-2.167-9.313-2.167-13.58,0l-37.633,19.104l-65.151-20.065c-5.667-1.744-11.825,0.01-15.721,4.476
	s-4.796,10.808-2.298,16.182l41.37,89c2.46,5.292,7.767,8.677,13.603,8.677h145.24c5.836,0,11.143-3.385,13.603-8.677l41.37-89
	C386.091,117.948,385.19,111.607,381.295,107.141z"/>
<path style="fill:#CAC9C7;" d="M381.295,107.141c-3.896-4.466-10.059-6.221-15.72-4.476l-65.153,20.065l-37.632-19.104
	c-2.134-1.083-4.462-1.625-6.79-1.625v119h72.62c5.836,0,11.143-3.385,13.603-8.677l41.37-89
	C386.091,117.948,385.19,111.607,381.295,107.141z"/>
<path style="fill:#E7E6E4;" d="M256,0c-22.332,0-40.5,18.168-40.5,40.5S233.668,81,256,81s40.5-18.168,40.5-40.5S278.332,0,256,0z"
	/>
<path style="fill:#CAC9C7;" d="M256,0v81c22.332,0,40.5-18.168,40.5-40.5S278.332,0,256,0z"/>
<path style="fill:#E7E6E4;" d="M380.225,492.24l-23.758-71c-2.047-6.117-7.774-10.24-14.225-10.24H256v101h110
	c4.825,0,9.354-2.321,12.174-6.236C380.992,501.848,381.756,496.815,380.225,492.24z"/>
<g>
</g>
<g>
</g>
<g>
</g>
<g>
</g>
<g>
</g>
<g>
</g>
<g>
</g>
<g>
</g>
<g>
</g>
<g>
</g>
<g>
</g>
<g>
</g>
<g>
</g>
<g>
</g>
<g>
</g>
</svg>
