<?xml version="1.0" encoding="iso-8859-1"?>
<!-- Generator: Adobe Illustrator 19.0.0, SVG Export Plug-In . SVG Version: 6.00 Build 0)  -->
<svg version="1.1" id="Capa_1" xmlns="http://www.w3.org/2000/svg" xmlns:xlink="http://www.w3.org/1999/xlink" x="0px" y="0px"
	 viewBox="0 0 512 512" style="enable-background:new 0 0 512 512;" xml:space="preserve">
<path style="fill:#5A5D60;" d="M295.5,39.5H271V15c0-8.284-6.716-15-15-15s-15,6.716-15,15v24.5h-24.5c-8.284,0-15,6.716-15,15
	s6.716,15,15,15H241V94c0,8.284,6.716,15,15,15s15-6.716,15-15V69.5h24.5c8.284,0,15-6.716,15-15S303.784,39.5,295.5,39.5z"/>
<g>
	<path style="fill:#424445;" d="M295.5,39.5H271V15c0-8.284-6.716-15-15-15v109c8.284,0,15-6.716,15-15V69.5h24.5
		c8.284,0,15-6.716,15-15S303.784,39.5,295.5,39.5z"/>
	<path style="fill:#424445;" d="M330.799,425.018l-14.44-220c-0.518-7.886-7.064-14.018-14.968-14.018H210.61
		c-7.903,0-14.45,6.132-14.968,14.018l-14.441,220c-0.272,4.14,1.183,8.208,4.02,11.236c2.836,3.028,6.799,4.747,10.948,4.747
		h119.663c4.148,0,8.112-1.718,10.948-4.747S331.07,429.158,330.799,425.018z"/>
</g>
<path style="fill:#252728;" d="M330.799,425.018l-14.44-220c-0.518-7.886-7.064-14.018-14.968-14.018H256v250h59.831
	c4.148,0,8.112-1.718,10.948-4.747S331.07,429.158,330.799,425.018z"/>
<path style="fill:#424445;" d="M313.907,85.052c-2.83-3.808-7.295-6.052-12.039-6.052h-91.736c-4.744,0-9.208,2.244-12.039,6.052
	c-2.83,3.808-3.692,8.73-2.324,13.272l18.366,61c1.908,6.338,7.745,10.676,14.363,10.676h55.005c6.619,0,12.455-4.338,14.363-10.676
	l18.365-61C317.599,93.782,316.737,88.859,313.907,85.052z"/>
<path style="fill:#252728;" d="M313.907,85.052c-2.83-3.808-7.295-6.052-12.039-6.052H256v91h27.503
	c6.619,0,12.455-4.338,14.363-10.676l18.365-61C317.599,93.782,316.737,88.859,313.907,85.052z"/>
<g>
	<path style="fill:#5A5D60;" d="M328.625,140h-145.25c-8.284,0-15,6.716-15,15v51c0,8.284,6.716,15,15,15h145.25
		c8.284,0,15-6.716,15-15v-51C343.625,146.716,336.909,140,328.625,140z"/>
	<path style="fill:#5A5D60;" d="M380.225,492.24l-23.758-71c-2.047-6.117-7.774-10.24-14.225-10.24H169.758
		c-6.45,0-12.178,4.124-14.225,10.24l-23.758,71c-1.531,4.575-0.768,9.608,2.051,13.523S141.175,512,146,512h220
		c4.825,0,9.354-2.321,12.174-6.236C380.992,501.848,381.756,496.815,380.225,492.24z"/>
</g>
<g>
	<path style="fill:#424445;" d="M328.625,140H256v81h72.625c8.284,0,15-6.716,15-15v-51C343.625,146.716,336.909,140,328.625,140z"
		/>
	<path style="fill:#424445;" d="M380.225,492.24l-23.758-71c-2.047-6.117-7.774-10.24-14.225-10.24H256v101h110
		c4.825,0,9.354-2.321,12.174-6.236C380.992,501.848,381.756,496.815,380.225,492.24z"/>
</g>
<g>
</g>
<g>
</g>
<g>
</g>
<g>
</g>
<g>
</g>
<g>
</g>
<g>
</g>
<g>
</g>
<g>
</g>
<g>
</g>
<g>
</g>
<g>
</g>
<g>
</g>
<g>
</g>
<g>
</g>
</svg>
