<?xml version="1.0" encoding="iso-8859-1"?>
<!-- Generator: Adobe Illustrator 19.0.0, SVG Export Plug-In . SVG Version: 6.00 Build 0)  -->
<svg version="1.1" id="Capa_1" xmlns="http://www.w3.org/2000/svg" xmlns:xlink="http://www.w3.org/1999/xlink" x="0px" y="0px"
	 viewBox="0 0 512 512" style="enable-background:new 0 0 512 512;" xml:space="preserve">
<path style="fill:#E7E6E4;" d="M439.871,187.5l-12.81,31.07l-19.62,47.61l-68.25,165.54c-2.31,5.61-7.79,9.28-13.86,9.28h-123.19
	c-4.83,0-9.37-2.33-12.19-6.26l-65.3-91.03c-3.62-5.04-3.75-11.8-0.34-16.99l66.57-101.09l11.98-18.19l-57.52,6.73l-45.25,5.3
	c-7.42,0.87-14.35-3.86-16.25-11.09l-12.35-47.01c-1.5-5.72,0.5-11.8,5.12-15.51L254.352,3.3c2.66-2.14,5.97-3.3,9.38-3.3h75.75
	c5.6,0,10.73,3.12,13.31,8.09l86.52,166.79C441.351,178.8,441.551,183.42,439.871,187.5z"/>
<g>
	<path style="fill:#CAC9C7;" d="M439.311,174.88L352.792,8.09c-2.58-4.97-7.71-8.09-13.31-8.09H264.27v441h61.062
		c6.07,0,11.55-3.67,13.86-9.28l68.25-165.54l19.62-47.61l12.81-31.07C441.551,183.42,441.351,178.8,439.311,174.88z"/>
	<path style="fill:#CAC9C7;" d="M306.242,170.41l-115.36,55.22l11.98-18.19l-57.52,6.73l147.95-70.82c7.47-3.57,16.43-0.42,20,7.06
		C316.872,157.88,313.712,166.84,306.242,170.41z"/>
</g>
<path style="fill:#FFFFFF;" d="M413.145,491.302l-29.158-71c-2.311-5.627-7.792-9.302-13.875-9.302H158.428
	c-6.083,0-11.564,3.674-13.875,9.302l-29.158,71c-1.9,4.626-1.369,9.896,1.416,14.051c2.785,4.154,7.458,6.647,12.459,6.647h269.999
	c5.002,0,9.674-2.493,12.459-6.647C414.514,501.198,415.045,495.928,413.145,491.302z"/>
<g>
	<path style="fill:#BDBEBB;" d="M313.292,150.41c-3.57-7.48-12.53-10.63-20-7.06l-29.022,13.892v33.259l41.972-20.091
		C313.712,166.84,316.872,157.88,313.292,150.41z"/>
	<path style="fill:#BDBEBB;" d="M427.061,218.57l-19.62,47.61l-99.74,62.22c-6.995,4.361-16.262,2.263-20.67-4.79
		c-4.38-7.03-2.24-16.28,4.79-20.67L427.061,218.57z"/>
</g>
<path style="fill:#E7E6E4;" d="M413.145,491.302l-29.158-71c-2.311-5.627-7.792-9.302-13.875-9.302H264.27v101h135
	c5.002,0,9.674-2.493,12.459-6.647C414.514,501.198,415.045,495.928,413.145,491.302z"/>
<g>
</g>
<g>
</g>
<g>
</g>
<g>
</g>
<g>
</g>
<g>
</g>
<g>
</g>
<g>
</g>
<g>
</g>
<g>
</g>
<g>
</g>
<g>
</g>
<g>
</g>
<g>
</g>
<g>
</g>
</svg>
