<?xml version="1.0" encoding="iso-8859-1"?>
<!-- Generator: Adobe Illustrator 19.0.0, SVG Export Plug-In . SVG Version: 6.00 Build 0)  -->
<svg version="1.1" id="Capa_1" xmlns="http://www.w3.org/2000/svg" xmlns:xlink="http://www.w3.org/1999/xlink" x="0px" y="0px"
	 viewBox="0 0 512 512" style="enable-background:new 0 0 512 512;" xml:space="preserve">
<path style="fill:#E7E6E4;" d="M319.912,424.888l-11.815-159C307.514,258.057,300.99,252,293.138,252h-74.275
	c-7.853,0-14.377,6.057-14.959,13.888l-11.815,159c-0.309,4.16,1.128,8.261,3.967,11.318c2.838,3.057,6.821,4.794,10.992,4.794
	h97.906c4.171,0,8.154-1.737,10.992-4.794C318.784,433.149,320.22,429.048,319.912,424.888z"/>
<path style="fill:#CAC9C7;" d="M319.912,424.888l-11.815-159C307.514,258.057,300.99,252,293.138,252H256v189h48.953
	c4.171,0,8.154-1.737,10.992-4.794C318.784,433.149,320.22,429.048,319.912,424.888z"/>
<path style="fill:#E7E6E4;" d="M319.85,168.42c-1.7,32-15,54.39-15.56,55.33c-2.72,4.5-7.59,7.25-12.85,7.25h-70.88
	c-5.26,0-10.13-2.75-12.85-7.25c-0.56-0.94-13.86-23.33-15.56-55.33c-1.57-29.49,6.54-73.17,54.1-113.82c5.62-4.8,13.88-4.8,19.5,0
	c17.82,15.23,30.1,30.89,38.41,46.07c5.68,10.37,9.51,20.52,11.97,30.15C319.69,144.71,320.43,157.53,319.85,168.42z"/>
<g>
	<path style="fill:#CAC9C7;" d="M316.13,130.82c-2.46-9.63-6.29-19.78-11.97-30.15c-8.31-15.18-20.59-30.84-38.41-46.07
		c-2.81-2.4-6.28-3.6-9.75-3.6v180h35.44c5.26,0,10.13-2.75,12.85-7.25c0.56-0.94,13.86-23.33,15.56-55.33
		C320.43,157.53,319.69,144.71,316.13,130.82z"/>
	<path style="fill:#CAC9C7;" d="M316.13,130.82l-43.86,42.33c-5.936,5.712-15.436,5.61-21.21-0.38c-5.75-5.96-5.58-15.46,0.38-21.21
		l52.72-50.89C309.84,111.04,313.67,121.19,316.13,130.82z"/>
</g>
<g>
	<path style="fill:#FFFFFF;" d="M315.42,201H196.58c-8.284,0-15,6.716-15,15v51c0,8.284,6.716,15,15,15h118.84
		c8.284,0,15-6.716,15-15v-51C330.42,207.716,323.704,201,315.42,201z"/>
	<path style="fill:#FFFFFF;" d="M360.467,493.039l-19.438-71C339.244,415.52,333.32,411,326.561,411H185.439
		c-6.759,0-12.683,4.52-14.468,11.039l-19.438,71c-1.235,4.512-0.295,9.341,2.543,13.06C156.912,509.818,161.323,512,166,512h180
		c4.678,0,9.088-2.182,11.925-5.901C360.762,502.38,361.703,497.551,360.467,493.039z"/>
	<path style="fill:#FFFFFF;" d="M256,0c-22.332,0-40.5,18.168-40.5,40.5S233.668,81,256,81s40.5-18.168,40.5-40.5S278.332,0,256,0z"
		/>
</g>
<path style="fill:#BDBEBB;" d="M304.16,100.67L256,147.158v29.011c5.381,2.274,11.824,1.258,16.27-3.019l43.86-42.33
	C313.67,121.19,309.84,111.04,304.16,100.67z"/>
<g>
	<path style="fill:#E7E6E4;" d="M315.42,201H256v81h59.42c8.284,0,15-6.716,15-15v-51C330.42,207.716,323.704,201,315.42,201z"/>
	<path style="fill:#E7E6E4;" d="M360.467,493.039l-19.438-71C339.244,415.52,333.32,411,326.561,411H256v101h90
		c4.678,0,9.088-2.182,11.925-5.901C360.762,502.38,361.703,497.551,360.467,493.039z"/>
	<path style="fill:#E7E6E4;" d="M256,0v81c22.332,0,40.5-18.168,40.5-40.5S278.332,0,256,0z"/>
</g>
<g>
</g>
<g>
</g>
<g>
</g>
<g>
</g>
<g>
</g>
<g>
</g>
<g>
</g>
<g>
</g>
<g>
</g>
<g>
</g>
<g>
</g>
<g>
</g>
<g>
</g>
<g>
</g>
<g>
</g>
</svg>
